<svg xmlns="http://www.w3.org/2000/svg" xmlns:xlink="http://www.w3.org/1999/xlink" width="0" height="0" style="display:none;"><symbol viewBox="0 0 24 24" id="shopping-basket-2-line"><path d="M15.3709 3.44L18.5819 9.002L22.0049 9.00218V11.0022L20.8379 11.002L20.0813 20.0852C20.0381 20.6035 19.6048 21.0022 19.0847 21.0022H4.92502C4.40493 21.0022 3.97166 20.6035 3.92847 20.0852L3.17088 11.002L2.00488 11.0022V9.00218L5.42688 9.002L8.63886 3.44L10.3709 4.44L7.73688 9.002H16.2719L13.6389 4.44L15.3709 3.44ZM18.8309 11.002L5.17788 11.0022L5.84488 19.0022H18.1639L18.8309 11.002ZM13.0049 13.0022V17.0022H11.0049V13.0022H13.0049ZM9.00488 13.0022V17.0022H7.00488V13.0022H9.00488ZM17.0049 13.0022V17.0022H15.0049V13.0022H17.0049Z"></path></symbol><symbol viewBox="0 0 24 24" id="shopping-cart-line"><path d="M4.00488 16V4H2.00488V2H5.00488C5.55717 2 6.00488 2.44772 6.00488 3V15H18.4433L20.4433 7H8.00488V5H21.7241C22.2764 5 22.7241 5.44772 22.7241 6C22.7241 6.08176 22.7141 6.16322 22.6942 6.24254L20.1942 16.2425C20.083 16.6877 19.683 17 19.2241 17H5.00488C4.4526 17 4.00488 16.5523 4.00488 16ZM6.00488 23C4.90031 23 4.00488 22.1046 4.00488 21C4.00488 19.8954 4.90031 19 6.00488 19C7.10945 19 8.00488 19.8954 8.00488 21C8.00488 22.1046 7.10945 23 6.00488 23ZM18.0049 23C16.9003 23 16.0049 22.1046 16.0049 21C16.0049 19.8954 16.9003 19 18.0049 19C19.1095 19 20.0049 19.8954 20.0049 21C20.0049 22.1046 19.1095 23 18.0049 23Z"></path></symbol></svg>